<?xml version="1.0" standalone="no"?>
<!DOCTYPE svg PUBLIC "-//W3C//DTD SVG 20010904//EN"
 "http://www.w3.org/TR/2001/REC-SVG-20010904/DTD/svg10.dtd">
<svg version="1.0" xmlns="http://www.w3.org/2000/svg"
 width="260.000000pt" height="260.000000pt" viewBox="0 0 260.000000 260.000000"
 preserveAspectRatio="xMidYMid meet">

<g transform="translate(0.000000,260.000000) scale(0.100000,-0.100000)"
fill="#000000" stroke="none">
<path d="M646 2344 c-11 -29 -6 -111 7 -122 7 -6 32 -10 56 -9 63 2 81 -24 81
-117 l0 -71 -55 -24 c-84 -36 -150 -80 -137 -93 5 -5 50 -25 98 -43 53 -20 90
-40 92 -49 3 -14 -2 -14 -40 -2 -57 18 -94 33 -147 59 l-43 22 -37 -41 c-62
-70 -86 -129 -85 -209 0 -59 5 -79 33 -131 18 -34 47 -76 66 -94 l33 -32 43
23 c24 12 74 32 111 45 66 22 68 22 68 3 0 -10 -7 -19 -16 -19 -23 0 -174 -62
-174 -71 0 -11 136 -86 182 -101 31 -9 44 -22 69 -67 93 -165 295 -265 473
-234 135 23 253 106 315 223 26 48 38 61 69 71 45 14 159 71 187 93 17 13 18
17 5 26 -26 17 -172 67 -243 83 -63 14 -69 14 -74 -1 -24 -79 -79 -166 -136
-218 l-62 -57 40 7 c22 4 52 9 68 12 38 8 34 -9 -10 -45 -96 -80 -247 -64
-323 33 -14 18 -13 19 15 12 17 -4 38 -9 48 -12 16 -5 17 7 17 156 l0 162 -65
-7 c-54 -6 -65 -5 -65 8 0 11 17 16 65 22 l65 7 0 98 0 98 -65 7 c-47 5 -65
11 -65 22 0 12 11 13 65 8 l65 -7 0 166 c0 103 -4 166 -10 166 -5 0 -33 -9
-62 -20 -29 -11 -54 -20 -55 -20 -2 0 -3 25 -3 55 0 73 29 104 89 95 7 -1 25
1 38 5 23 5 24 9 21 73 l-3 67 -301 3 c-269 2 -302 1 -308 -14z m574 -59 l0
-35 -85 0 c-97 0 -131 -13 -165 -61 l-22 -30 -19 30 c-28 47 -66 61 -164 61
l-85 0 0 35 0 35 270 0 270 0 0 -35z m-316 -84 l31 -31 5 -438 c5 -424 6 -439
28 -493 32 -80 90 -142 170 -181 60 -30 75 -33 152 -33 71 1 95 5 142 27 63
29 138 99 158 147 7 17 16 31 21 31 18 0 -30 -76 -78 -122 -26 -26 -73 -59
-103 -75 -51 -26 -64 -28 -170 -28 -109 0 -119 2 -183 32 -89 42 -168 121
-210 210 l-32 68 -5 432 -5 431 -24 33 -24 32 48 -5 c36 -4 55 -14 79 -37z
m202 14 c-13 -14 -26 -38 -29 -53 -3 -15 -5 -220 -4 -457 2 -481 1 -471 75
-549 53 -55 103 -76 188 -76 90 0 164 34 209 97 35 49 54 57 28 12 -35 -61
-110 -118 -185 -140 -130 -40 -254 -5 -346 96 -83 90 -82 86 -82 581 l0 432
27 32 c31 38 55 49 105 49 l37 1 -23 -25z"/>
<path d="M1416 2344 c-11 -28 -6 -111 7 -121 6 -6 32 -11 57 -12 53 -1 78 -22
87 -74 10 -62 4 -66 -74 -51 -108 21 -110 20 -45 -41 57 -53 107 -131 131
-207 l12 -36 62 14 c81 19 149 41 217 71 l55 24 -25 21 c-14 12 -67 41 -117
65 l-93 44 0 64 c0 84 19 109 81 107 65 -2 71 5 67 79 l-3 64 -206 3 c-182 2
-207 0 -213 -14z m384 -59 l0 -35 -56 0 c-48 0 -59 -4 -85 -29 l-29 -29 -31
29 c-27 25 -39 29 -90 29 l-59 0 0 35 0 35 175 0 175 0 0 -35z m-201 -81 c16
-20 21 -41 21 -85 0 -80 -17 -75 -22 5 -3 45 -10 71 -22 85 -11 12 -14 21 -8
21 6 0 20 -12 31 -26z m70 -11 c-12 -23 -19 -58 -19 -91 0 -36 -3 -51 -11 -46
-7 4 -10 29 -7 65 3 44 10 65 28 84 13 14 24 25 26 25 1 0 -7 -17 -17 -37z"/>
<path d="M1270 1936 l0 -166 98 6 c53 4 117 10 142 13 53 8 54 14 10 108 -47
103 -129 176 -222 198 l-28 7 0 -166z"/>
<path d="M1863 1854 c-40 -19 -114 -45 -165 -57 l-93 -24 -1 -136 c-1 -124 1
-137 16 -137 32 0 194 -50 259 -81 l65 -30 37 37 c81 79 115 196 85 297 -17
59 -89 160 -117 164 -8 1 -46 -14 -86 -33z"/>
<path d="M1480 1758 c-41 -4 -105 -10 -142 -14 l-68 -6 0 -98 0 -98 68 -6 c37
-3 101 -10 142 -15 43 -5 79 -5 85 1 5 4 9 58 9 118 0 60 -4 113 -9 118 -6 4
-44 4 -85 0z"/>
<path d="M1270 1351 l0 -161 28 6 c55 12 111 46 152 90 45 49 105 166 97 188
-3 8 -31 16 -79 20 -40 3 -101 9 -135 12 l-63 6 0 -161z"/>
<path d="M316 733 c-8 -21 -9 -21 24 -28 l30 -7 0 -188 0 -187 -30 -6 c-21 -5
-30 -12 -30 -27 0 -19 6 -20 115 -20 106 0 115 1 115 19 0 20 -18 31 -51 31
-17 0 -19 8 -19 69 l0 68 68 0 c76 0 116 16 156 63 21 26 26 42 26 89 0 67
-22 105 -76 127 -49 20 -320 18 -328 -3z m275 -72 c32 -33 36 -58 14 -101 -16
-30 -68 -54 -107 -48 -22 3 -23 8 -26 91 l-3 87 46 0 c38 0 52 -5 76 -29z"/>
<path d="M750 731 c0 -12 9 -21 25 -25 19 -5 32 -20 46 -54 98 -229 100 -232
130 -232 35 0 35 -4 6 -55 -27 -48 -47 -54 -86 -26 -33 24 -52 26 -69 9 -35
-35 6 -93 67 -93 78 0 120 54 203 259 43 105 61 139 96 173 23 22 42 46 42 52
0 7 -32 11 -90 11 -82 0 -90 -2 -90 -19 0 -12 9 -21 26 -25 31 -8 30 -13 -17
-136 -17 -45 -35 -78 -39 -73 -7 7 -77 185 -94 236 -4 14 -18 17 -81 17 -67 0
-75 -2 -75 -19z"/>
<path d="M1260 732 c0 -9 13 -23 30 -30 30 -14 30 -15 30 -92 0 -139 -61 -280
-122 -280 l-29 0 3 -93 c3 -86 4 -92 25 -95 22 -3 25 1 49 100 l6 28 173 0
c195 0 178 7 190 -83 5 -41 9 -47 30 -47 28 0 31 9 39 118 l5 72 -35 0 -34 0
0 185 0 184 35 7 c19 3 35 8 35 9 0 2 -3 10 -6 19 -5 14 -34 16 -215 16 -193
0 -209 -1 -209 -18z m260 -222 l0 -180 -59 0 c-32 0 -79 3 -104 6 l-45 6 24
54 c27 61 44 152 44 237 l0 57 70 0 70 0 0 -180z"/>
<path d="M1760 731 c0 -13 9 -21 30 -26 l30 -7 0 -187 0 -188 -32 -9 c-18 -6
-33 -16 -33 -24 0 -12 22 -16 111 -18 97 -2 112 0 118 14 8 20 -9 34 -42 34
-22 0 -23 2 -20 88 l3 87 99 0 99 0 -1 -80 c0 -44 -1 -83 -1 -87 -1 -3 -14 -9
-31 -13 -21 -5 -30 -13 -30 -26 0 -18 8 -19 115 -19 109 0 115 1 115 20 0 15
-9 22 -30 27 l-30 6 0 187 0 188 30 7 c21 5 30 13 30 26 0 18 -8 19 -110 19
-101 0 -110 -2 -110 -19 0 -12 9 -21 25 -25 18 -5 25 -14 27 -34 0 -15 2 -40
3 -57 5 -64 3 -65 -106 -65 l-99 0 0 75 0 74 36 7 c25 5 34 11 30 21 -3 8 -6
17 -6 19 0 2 -49 4 -110 4 -102 0 -110 -1 -110 -19z"/>
</g>
</svg>
